<?xml version="1.0" standalone="no"?>
<!DOCTYPE svg PUBLIC "-//W3C//DTD SVG 20010904//EN"
 "http://www.w3.org/TR/2001/REC-SVG-20010904/DTD/svg10.dtd">
<svg version="1.0" xmlns="http://www.w3.org/2000/svg"
 width="250.000000pt" height="150.000000pt" viewBox="0 0 250.000000 150.000000"
 preserveAspectRatio="xMidYMid meet">
<metadata>
Created by potrace 1.10, written by Peter Selinger 2001-2011
</metadata>
<g transform="translate(0.000000,150.000000) scale(0.100000,-0.100000)"
fill="#000000" stroke="none">
<path d="M1257 1318 c-164 -224 -249 -350 -243 -363 4 -11 29 -15 106 -17
l101 -3 -77 -102 c-47 -64 -74 -109 -70 -118 5 -13 58 -15 423 -13 388 3 418
4 418 20 0 23 -403 568 -420 568 -7 0 -22 -12 -33 -27 l-20 -27 -33 49 c-47
68 -79 105 -90 105 -5 0 -33 -33 -62 -72z m83 23 c0 -5 -11 -11 -25 -14 -24
-4 -25 -3 -9 14 16 18 34 17 34 0z m32 -93 l40 -56 -76 -101 -77 -101 -84 0
c-47 0 -85 2 -85 5 0 14 224 315 233 312 5 -1 27 -28 49 -59z m132 4 c2 -4 -6
-12 -19 -18 -22 -11 -23 -10 -12 7 13 20 23 24 31 11z m-54 -47 c0 -23 -14
-18 -26 10 -11 23 -10 24 7 14 10 -5 19 -16 19 -24z m225 -225 l166 -225 -170
-3 c-93 -1 -249 -1 -345 0 l-176 3 67 92 68 93 168 0 c139 0 169 3 173 15 4 9
-26 60 -74 127 -60 85 -78 116 -70 126 6 7 15 9 19 5 4 -4 82 -109 174 -233z
m-215 190 c0 -5 -7 -7 -15 -4 -8 4 -15 8 -15 10 0 2 7 4 15 4 8 0 15 -4 15
-10z m90 -175 c0 -3 -49 -5 -110 -5 -60 0 -110 2 -110 5 0 3 25 39 56 80 l56
75 54 -75 c30 -42 54 -78 54 -80z m-466 -14 c7 -11 -22 -23 -35 -15 -5 3 -7
10 -4 15 8 12 32 12 39 0z m241 -1 c3 -5 1 -10 -4 -10 -22 0 -27 -1 -49 -16
-13 -9 -31 -13 -40 -9 -12 4 -8 10 19 24 39 21 65 25 74 11z m269 1 c7 -11
-14 -20 -31 -13 -7 2 -10 8 -7 13 7 12 31 12 38 0z m-468 -227 c-3 -8 -2 -12
3 -9 5 3 12 1 15 -4 9 -13 -9 -22 -28 -15 -12 5 -13 10 -5 25 12 23 24 25 15
3z m763 -28 c-3 -3 -15 -3 -27 1 -18 4 -20 8 -11 20 11 12 14 12 28 -1 8 -9
13 -18 10 -20z"/>
<path d="M266 1053 c-10 -3 -24 -9 -30 -14 -6 -5 -22 -19 -36 -30 -24 -20 -25
-26 -25 -127 0 -76 4 -107 13 -110 7 -2 19 -10 26 -18 8 -8 22 -14 30 -14 9 0
16 -4 16 -10 0 -6 29 -10 68 -10 47 0 63 3 52 10 -12 8 -10 10 8 10 25 0 52
21 52 39 0 15 -37 14 -42 -1 -7 -21 -121 -17 -142 5 -10 9 -22 17 -27 17 -5 0
-9 38 -9 85 0 50 4 85 10 85 6 0 10 5 10 11 0 6 8 18 17 27 20 20 134 23 141
3 6 -17 42 -13 42 5 0 8 -4 12 -10 9 -5 -3 -10 0 -10 8 0 8 -10 17 -22 21 -26
7 -104 6 -132 -1z m-59 -185 c-2 -18 -4 -6 -4 27 0 33 2 48 4 33 2 -15 2 -42
0 -60z"/>
<path d="M570 960 c0 -5 -7 -10 -15 -10 -8 0 -24 -8 -35 -17 -17 -14 -20 -30
-20 -88 0 -58 3 -74 20 -88 11 -9 27 -17 35 -17 8 0 15 -4 15 -10 0 -6 29 -10
68 -10 47 0 63 3 52 10 -12 8 -11 10 8 10 13 0 22 6 22 16 0 12 -8 14 -44 9
-25 -4 -63 -4 -85 0 -36 6 -41 10 -42 33 0 24 -1 25 -9 7 -8 -18 -9 -17 -9 8
l-1 27 101 0 102 0 -6 40 c-5 42 -26 70 -51 70 -9 0 -16 5 -16 10 0 6 -20 10
-45 10 -25 0 -45 -4 -45 -10z m98 -38 c6 -2 12 -15 12 -28 0 -23 -3 -24 -75
-24 -61 0 -75 3 -75 16 0 8 5 12 10 9 6 -3 10 0 10 9 0 8 6 17 13 20 14 6 85
5 105 -2z"/>
<path d="M770 948 c0 -19 2 -20 10 -8 8 12 10 12 10 1 0 -7 8 -21 19 -30 10
-9 21 -26 25 -39 9 -28 -2 -84 -15 -76 -5 3 -9 -2 -9 -10 0 -8 -9 -18 -20 -21
-11 -3 -20 -15 -20 -26 0 -14 7 -19 29 -19 25 0 30 5 35 35 5 27 13 36 34 42
24 6 24 7 7 14 -19 7 -18 8 3 8 13 1 22 -5 22 -14 0 -8 5 -15 10 -15 6 0 10
-5 10 -11 0 -6 7 -17 15 -26 8 -8 13 -19 10 -24 -4 -5 10 -9 29 -9 41 0 45 9
16 30 -11 8 -20 20 -20 26 0 7 -7 14 -15 18 -8 3 -15 16 -15 28 0 19 -2 20
-10 8 -8 -12 -10 -9 -10 13 0 15 4 27 10 27 5 0 13 12 16 26 5 19 9 22 15 12
7 -10 9 -9 9 5 0 9 5 17 10 17 6 0 10 9 10 20 0 15 -7 20 -25 20 -14 0 -24 -3
-24 -7 4 -23 -2 -43 -11 -38 -5 3 -10 -1 -10 -9 0 -9 -3 -17 -7 -17 -38 -7
-53 -5 -53 7 0 8 -4 14 -9 14 -5 0 -12 11 -15 25 -5 20 -13 25 -36 25 -24 0
-30 -4 -30 -22z m120 -97 c0 -6 -4 -13 -10 -16 -5 -3 -10 1 -10 9 0 9 5 16 10
16 6 0 10 -4 10 -9z"/>
<path d="M151 884 c0 -11 3 -14 6 -6 3 7 2 16 -1 19 -3 4 -6 -2 -5 -13z"/>
<path d="M483 845 c0 -27 2 -38 4 -22 2 15 2 37 0 50 -2 12 -4 0 -4 -28z"/>
<path d="M1344 450 c0 -69 1 -97 3 -62 3 44 8 62 18 62 7 0 16 6 18 13 11 26
27 -19 27 -75 0 -32 5 -58 10 -58 11 0 12 82 1 120 -6 20 -13 25 -39 24 -30
-2 -31 -1 -35 50 -2 28 -3 -5 -3 -74z"/>
<path d="M395 527 c-27 -29 -29 -135 -2 -161 9 -10 17 -22 17 -27 0 -5 12 -9
26 -9 27 0 61 26 49 38 -4 4 -10 1 -12 -5 -7 -19 -44 -16 -59 5 -18 23 -18
123 -1 147 11 14 22 17 48 12 19 -3 28 -3 21 0 -6 2 -10 9 -6 14 12 20 -62 7
-81 -14z"/>
<path d="M1030 440 l0 -110 40 0 c22 0 40 5 40 10 0 6 -16 10 -35 10 -34 0
-35 1 -35 40 0 38 2 40 30 40 17 0 30 5 30 10 0 6 -13 10 -30 10 -28 0 -30 2
-30 40 0 39 1 40 35 40 19 0 35 5 35 10 0 6 -18 10 -40 10 l-40 0 0 -110z"/>
<path d="M1281 534 c0 -11 3 -14 6 -6 3 7 2 16 -1 19 -3 4 -6 -2 -5 -13z"/>
<path d="M820 501 c0 -11 -6 -22 -12 -24 -10 -4 -10 -6 0 -6 8 -1 12 -19 12
-55 0 -30 3 -61 6 -70 7 -17 44 -22 44 -6 0 6 -4 10 -10 10 -15 0 -13 117 3
123 10 4 10 6 0 6 -7 1 -13 10 -13 21 0 11 -7 20 -15 20 -8 0 -15 -9 -15 -19z"/>
<path d="M505 404 c0 -82 14 -103 16 -24 1 28 3 55 4 60 1 6 3 15 4 20 0 6 12
10 25 10 21 0 25 -7 35 -60 7 -33 16 -60 22 -60 5 0 9 -7 9 -15 0 -8 -4 -15
-10 -15 -5 0 -10 -12 -10 -26 0 -16 5 -24 12 -22 14 5 60 208 48 208 -8 0 -17
-28 -27 -80 -6 -35 -13 -38 -13 -7 0 15 -4 27 -9 27 -5 0 -11 12 -13 28 -3 25
-7 27 -48 28 l-45 2 0 -74z"/>
<path d="M702 370 c1 -58 3 -87 5 -65 3 22 9 45 15 52 7 9 7 13 -2 13 -15 0
-10 70 7 88 26 27 43 14 43 -34 0 -44 -16 -74 -39 -74 -6 0 -11 -4 -11 -10 0
-5 12 -10 26 -10 20 0 25 4 20 16 -3 8 -2 13 3 10 21 -13 29 71 10 105 -7 14
-19 19 -45 17 l-34 -2 2 -106z"/>
<path d="M906 464 c-22 -21 -20 -86 3 -112 23 -28 58 -28 66 -2 3 11 11 20 16
20 16 0 10 69 -8 90 -21 24 -56 26 -77 4z m60 -16 c8 -23 8 -34 -1 -75 -6 -26
-30 -31 -39 -7 -8 20 -8 68 0 88 9 23 31 20 40 -6z"/>
<path d="M1130 470 c0 -6 9 -20 20 -32 11 -12 20 -25 20 -30 0 -4 -9 -17 -20
-28 -24 -24 -26 -50 -5 -50 8 0 15 9 15 19 0 11 4 22 9 26 12 7 33 -29 24 -39
-3 -3 3 -6 14 -6 16 0 20 5 16 19 -3 11 -11 22 -19 25 -19 7 -18 51 1 70 18
18 19 36 2 36 -7 0 -18 -12 -24 -27 l-10 -28 -8 28 c-7 25 -35 39 -35 17z"/>
<path d="M1250 460 c-13 -23 -11 -110 2 -110 5 0 6 -4 3 -10 -4 -6 6 -10 23
-10 18 0 32 6 36 16 8 21 8 24 -5 24 -5 0 -7 -4 -4 -10 4 -6 -5 -10 -19 -10
-24 0 -26 3 -26 44 0 24 3 51 6 60 7 19 30 21 37 4 2 -7 8 -10 12 -6 12 12 -5
28 -30 28 -14 0 -29 -9 -35 -20z"/>
<path d="M1470 470 c-8 -5 -11 -13 -6 -17 5 -4 11 -2 13 5 7 17 40 15 47 -4
11 -28 7 -34 -25 -34 -17 0 -28 -4 -24 -10 3 -5 18 -10 32 -10 21 0 24 -4 20
-21 -6 -23 1 -49 13 -49 11 0 7 120 -3 138 -10 14 -46 16 -67 2z"/>
<path d="M1580 403 c0 -42 4 -73 10 -73 6 0 10 25 10 56 0 37 5 61 16 71 23
23 34 1 34 -69 0 -41 4 -58 13 -58 17 0 12 131 -5 141 -7 5 -28 8 -45 7 l-33
-1 0 -74z"/>
<path d="M1707 473 c-2 -5 -3 -37 -3 -73 1 -36 -2 -70 -7 -77 -5 -7 -4 -21 3
-32 14 -28 65 -29 80 -2 13 25 13 61 0 61 -5 0 -10 -9 -10 -19 0 -47 -40 -72
-54 -35 -11 28 3 54 29 54 41 0 39 20 -2 22 -37 1 -37 1 -5 5 34 4 35 23 1 23
-15 0 -19 7 -19 35 0 28 4 35 20 35 16 0 20 -7 20 -35 0 -48 17 -44 22 5 l4
40 -38 0 c-20 0 -39 -3 -41 -7z"/>
<path d="M1817 460 c-18 -21 -24 -90 -8 -90 5 0 13 -9 16 -20 7 -21 55 -29 55
-10 0 6 -9 10 -19 10 -17 0 -31 18 -31 41 0 5 16 9 35 9 33 0 35 2 35 34 0 26
-5 35 -22 40 -35 9 -42 7 -61 -14z m55 -15 c5 -22 2 -25 -23 -25 -15 0 -31 5
-35 12 -4 6 -3 8 4 4 6 -3 13 3 17 14 9 28 32 25 37 -5z"/>
<path d="M684 355 c0 -49 1 -71 3 -48 2 23 2 64 0 90 -2 26 -3 8 -3 -42z"/>
<path d="M1460 381 c0 -35 12 -51 36 -51 13 0 24 5 24 10 0 6 -9 10 -20 10
-15 0 -20 7 -20 25 0 14 -4 25 -10 25 -5 0 -10 -9 -10 -19z"/>
<path d="M1875 360 c3 -5 10 -10 16 -10 5 0 9 5 9 10 0 6 -7 10 -16 10 -8 0
-12 -4 -9 -10z"/>
<path d="M1053 283 c9 -2 23 -2 30 0 6 3 -1 5 -18 5 -16 0 -22 -2 -12 -5z"/>
</g>
</svg>
